
        <svg xmlns="http://www.w3.org/2000/svg" xmlns:xlink="http://www.w3.org/1999/xlink" version="1.1" width="3146.7597296551485" 
        height="406.8581310714125" viewBox="0 0 3146.7597296551485 406.8581310714125">
			
			<g transform="scale(7.337986482757412) translate(10, 10)">
				<defs id="SvgjsDefs3103"></defs><g id="SvgjsG3104" featureKey="nameLeftFeature-0" transform="matrix(1.2222576141357422,0,0,1.2222576141357422,-0.4889025768269955,-13.444831353463574)" fill="#fcfefe"><path d="M12.64 11 l1.44 5.4 l-3.88 0 l0 23.6 l-5.92 0 l0 -23.6 l-3.88 0 l1.52 -5.4 l10.72 0 z M30.68 40 l-5.92 0 l0 -11.6 l-3.16 0 l0 11.6 l-5.92 0 l0 -29 l5.92 0 l0 12.4 l3.16 0 l0 -12.4 l5.92 0 l0 29 z M33.080000000000005 11 l11.28 0 l1 5.4 l-6.32 0 l0 6.88 l4.8 0 l0 5 l-4.8 0 l0 6.32 l6.08 0 l-1 5.4 l-11.04 0 l0 -29 z M58.160000000000004 16.08 l0 10 l2.84 0 c0.37332 0 0.56 -0.2 0.56 -0.6 l0 -8.8 c0 -0.4 -0.18668 -0.6 -0.56 -0.6 l-2.84 0 z M67.28 28.2 c0 0.64 -0.22 1.2267 -0.66 1.76 s-1.0867 0.8 -1.94 0.8 l3.04 9.24 l-6 0 l-2.8 -9.24 l-0.76 0 l0 9.24 l-5.8 0 l0 -29 l11 0 c1.36 0 2.3533 0.34 2.98 1.02 s0.94 1.5933 0.94 2.74 l0 13.44 z M74.28 40 c-1.68 0 -2.8533 -0.34668 -3.52 -1.04 s-1 -1.84 -1 -3.44 l0 -24.52 l5.92 0 l0 23.28 c0 0.21332 0.03332 0.37332 0.1 0.48 s0.22 0.16 0.46 0.16 l2.04 0 c0.24 0 0.39332 -0.05332 0.46 -0.16 s0.1 -0.26668 0.1 -0.48 l0 -23.28 l5.92 0 l0 24.52 c0 1.6 -0.33332 2.7467 -1 3.44 s-1.84 1.04 -3.52 1.04 l-5.96 0 z M88.60000000000001 40 l-1.0399 -5.4 l6.24 0 c0.45332 0 0.68 -0.2 0.68 -0.6 l0 -5.28 c0 -0.4 -0.08 -0.64 -0.24 -0.72 s-0.44 -0.12 -0.84 -0.12 l-3 0 c-0.42668 0 -0.83336 -0.03332 -1.22 -0.1 s-0.73336 -0.22 -1.04 -0.46 s-0.54668 -0.57332 -0.72 -1 s-0.26 -1 -0.26 -1.72 l0 -9.84 c0 -1.1467 0.31332 -2.06 0.94 -2.74 s1.62 -1.02 2.98 -1.02 l8 0 l1 5.4 l-6.56 0 c-0.48 0 -0.72 0.21332 -0.72 0.64 l0 5.28 c0 0.29332 0.07332 0.49332 0.22 0.6 s0.36668 0.16 0.66 0.16 l3.64 0 c0.93332 0 1.6466 0.22 2.14 0.66 s0.74 1.2067 0.74 2.3 l0 9.56 c0 1.6 -0.32668 2.7333 -0.98 3.4 s-1.8066 1 -3.46 1 l-7.16 0 z M113.64 11 l1.44 5.4 l-3.88 0 l0 23.6 l-5.92 0 l0 -23.6 l-3.88 0 l1.52 -5.4 l10.72 0 z"></path></g><g id="SvgjsG3105" featureKey="inlineSymbolFeature-0" transform="matrix(0.4806988835334778,0,0,0.4806988835334778,156.00982375169235,-13.219219194393347)" fill="#f76b8a"><path xmlns="http://www.w3.org/2000/svg" style="" d="M 34.800781 27.5 C 28.500781 27.5 23.300781 32.7 23.300781 39 L 23.300781 42.5 L 9.8007812 42.5 C 9.0007812 42.5 8.3007812 43.2 8.3007812 44 C 8.3007812 44.8 9.0007812 45.5 9.8007812 45.5 L 23.300781 45.5 L 23.300781 52.5 L 9.8007812 52.5 C 9.0007812 52.5 8.3007812 53.2 8.3007812 54 C 8.3007812 54.8 9.0007812 55.5 9.8007812 55.5 L 23.300781 55.5 L 23.300781 62.5 L 9.8007812 62.5 C 9.0007812 62.5 8.3007812 63.2 8.3007812 64 C 8.3007812 64.8 9.0007812 65.5 9.8007812 65.5 L 23.300781 65.5 L 23.300781 72.5 L 9.8007812 72.5 C 9.0007812 72.5 8.3007812 73.2 8.3007812 74 C 8.3007812 74.8 9.0007812 75.5 9.8007812 75.5 L 23.300781 75.5 L 23.300781 82.5 L 9.8007812 82.5 C 9.0007812 82.5 8.3007812 83.2 8.3007812 84 C 8.3007812 84.8 9.0007812 85.5 9.8007812 85.5 L 23.300781 85.5 L 23.300781 89 C 23.300781 95.3 28.500781 100.5 34.800781 100.5 L 93.199219 100.5 C 99.499219 100.5 104.69922 95.3 104.69922 89 L 104.69922 85.5 L 104.80078 85.5 L 119.80078 85.5 C 120.60078 85.5 121.30078 84.8 121.30078 84 C 121.30078 83.2 120.60078 82.5 119.80078 82.5 L 104.80078 82.5 L 104.69922 82.5 L 104.69922 75.5 L 104.80078 75.5 L 119.80078 75.5 C 120.60078 75.5 121.30078 74.8 121.30078 74 C 121.30078 73.2 120.60078 72.5 119.80078 72.5 L 104.80078 72.5 L 104.69922 72.5 L 104.69922 65.5 L 104.80078 65.5 L 119.80078 65.5 C 120.60078 65.5 121.30078 64.8 121.30078 64 C 121.30078 63.2 120.60078 62.5 119.80078 62.5 L 104.80078 62.5 L 104.69922 62.5 L 104.69922 55.5 L 104.80078 55.5 L 119.80078 55.5 C 120.60078 55.5 121.30078 54.8 121.30078 54 C 121.30078 53.2 120.60078 52.5 119.80078 52.5 L 104.80078 52.5 L 104.69922 52.5 L 104.69922 45.5 L 104.80078 45.5 L 119.80078 45.5 C 120.60078 45.5 121.30078 44.8 121.30078 44 C 121.30078 43.2 120.60078 42.5 119.80078 42.5 L 104.80078 42.5 L 104.69922 42.5 L 104.69922 39 C 104.69922 32.7 99.499219 27.5 93.199219 27.5 L 34.800781 27.5 z M 34.800781 30.5 L 93.199219 30.5 C 97.899219 30.5 101.69922 34.3 101.69922 39 L 101.69922 89 C 101.69922 93.7 97.899219 97.5 93.199219 97.5 L 34.800781 97.5 C 30.100781 97.5 26.300781 93.7 26.300781 89 L 26.300781 39 C 26.300781 34.3 30.100781 30.5 34.800781 30.5 z M 44.800781 43 C 41.200781 43 38.300781 45.9 38.300781 49.5 C 38.300781 52.6 40.500781 55.100781 43.300781 55.800781 L 43.300781 79 C 43.300781 79.8 44.000781 80.5 44.800781 80.5 L 77.400391 80.5 C 77.900391 83.6 80.600781 86 83.800781 86 C 87.400781 86 90.300781 83.1 90.300781 79.5 C 90.300781 75.9 87.400781 73 83.800781 73 C 80.900781 73 78.499609 74.9 77.599609 77.5 L 46.300781 77.5 L 46.300781 55.800781 C 49.200781 55.100781 51.300781 52.5 51.300781 49.5 C 51.300781 45.9 48.400781 43 44.800781 43 z M 83.800781 43 C 80.200781 43 77.300781 45.9 77.300781 49.5 C 77.300781 50.3 77.399219 50.999219 77.699219 51.699219 L 68.300781 57.800781 C 67.100781 56.700781 65.600781 56 63.800781 56 C 60.200781 56 57.300781 58.9 57.300781 62.5 C 57.300781 66.1 60.200781 69 63.800781 69 C 67.400781 69 70.300781 66.1 70.300781 62.5 C 70.300781 61.7 70.200391 61.000781 69.900391 60.300781 L 79.300781 54.199219 C 80.500781 55.299219 82.000781 56 83.800781 56 C 87.400781 56 90.300781 53.1 90.300781 49.5 C 90.300781 45.9 87.400781 43 83.800781 43 z M 44.800781 46 C 46.700781 46 48.300781 47.6 48.300781 49.5 C 48.300781 51.4 46.700781 53 44.800781 53 C 42.900781 53 41.300781 51.4 41.300781 49.5 C 41.300781 47.6 42.900781 46 44.800781 46 z M 83.800781 46 C 85.700781 46 87.300781 47.6 87.300781 49.5 C 87.300781 51.4 85.800781 53 83.800781 53 C 81.800781 53 80.300781 51.4 80.300781 49.5 C 80.300781 47.6 81.900781 46 83.800781 46 z M 63.800781 59 C 65.700781 59 67.300781 60.6 67.300781 62.5 C 67.300781 64.4 65.800781 66 63.800781 66 C 61.800781 66 60.300781 64.4 60.300781 62.5 C 60.300781 60.6 61.900781 59 63.800781 59 z M 83.800781 76 C 85.700781 76 87.300781 77.6 87.300781 79.5 C 87.300781 81.4 85.800781 83 83.800781 83 C 81.800781 83 80.300781 81.4 80.300781 79.5 C 80.300781 77.6 81.900781 76 83.800781 76 z " fill="#f76b8a" stroke="none"></path></g><g id="SvgjsG3106" featureKey="nameRightFeature-0" transform="matrix(1.2222559452056885,0,0,1.2222559452056885,227.39981675226713,-13.44476848961633)" fill="#fcfefe"><path d="M23.92 11 l5.92 0 l-4.56 29 l-5.28 0 l-2.4 -15.12 l-2.36 15.12 l-5.28 0 l-4.56 -29 l5.92 0 l1.84 16.88 l2.36 -16.88 l4.2 0 l2.32 16.88 z M37.800000000000004 16.08 c-0.34668 0 -0.52 0.18668 -0.52 0.56 l0 17.68 c0 0.21332 0.03332 0.36664 0.1 0.45996 s0.22 0.14 0.46 0.14 l2.2 0 c0.24 0 0.39332 -0.04668 0.46 -0.14 s0.1 -0.24664 0.1 -0.45996 l0 -17.68 c0 -0.37332 -0.17332 -0.56 -0.52 -0.56 l-2.28 0 z M46.480000000000004 35.88 c0 0.56 -0.06668 1.0867 -0.2 1.58 s-0.36 0.92664 -0.68 1.3 s-0.74668 0.67332 -1.28 0.9 s-1.2 0.34 -2 0.34 l-6.72 0 c-0.8 0 -1.4667 -0.11332 -2 -0.34 s-0.96 -0.52668 -1.28 -0.9 s-0.54668 -0.80664 -0.68 -1.3 s-0.2 -1.02 -0.2 -1.58 l0 -21.12 c0 -1.1467 0.31332 -2.06 0.94 -2.74 s1.62 -1.02 2.98 -1.02 l7.2 0 c1.36 0 2.3533 0.34 2.98 1.02 s0.94 1.5933 0.94 2.74 l0 21.12 z M54.68000000000001 16.08 l0 10 l2.84 0 c0.37332 0 0.56 -0.2 0.56 -0.6 l0 -8.8 c0 -0.4 -0.18668 -0.6 -0.56 -0.6 l-2.84 0 z M63.80000000000001 28.2 c0 0.64 -0.22 1.2267 -0.66 1.76 s-1.0867 0.8 -1.94 0.8 l3.04 9.24 l-6 0 l-2.8 -9.24 l-0.76 0 l0 9.24 l-5.8 0 l0 -29 l11 0 c1.36 0 2.3533 0.34 2.98 1.02 s0.94 1.5933 0.94 2.74 l0 13.44 z M72.20000000000002 23.44 l0.88 0 l2.96 -12.44 l6 0 l-3.48 13.36 l3.44 15.64 l-6.36 0 l-2.28 -11.96 l-1.16 0 l0 11.96 l-5.92 0 l0 -29 l5.92 0 l0 12.44 l0 0 z M84.76000000000002 40 l-1.0399 -5.4 l6.24 0 c0.45332 0 0.68 -0.2 0.68 -0.6 l0 -5.28 c0 -0.4 -0.08 -0.64 -0.24 -0.72 s-0.44 -0.12 -0.84 -0.12 l-3 0 c-0.42668 0 -0.83336 -0.03332 -1.22 -0.1 s-0.73336 -0.22 -1.04 -0.46 s-0.54668 -0.57332 -0.72 -1 s-0.26 -1 -0.26 -1.72 l0 -9.84 c0 -1.1467 0.31332 -2.06 0.94 -2.74 s1.62 -1.02 2.98 -1.02 l8 0 l1 5.4 l-6.56 0 c-0.48 0 -0.72 0.21332 -0.72 0.64 l0 5.28 c0 0.29332 0.07332 0.49332 0.22 0.6 s0.36668 0.16 0.66 0.16 l3.64 0 c0.93332 0 1.6466 0.22 2.14 0.66 s0.74 1.2067 0.74 2.3 l0 9.56 c0 1.6 -0.32668 2.7333 -0.98 3.4 s-1.8066 1 -3.46 1 l-7.16 0 z M113.76000000000002 40 l-5.92 0 l0 -11.6 l-3.16 0 l0 11.6 l-5.92 0 l0 -29 l5.92 0 l0 12.4 l3.16 0 l0 -12.4 l5.92 0 l0 29 z M122.52000000000002 16.08 c-0.34668 0 -0.52 0.18668 -0.52 0.56 l0 17.68 c0 0.21332 0.03332 0.36664 0.1 0.45996 s0.22 0.14 0.46 0.14 l2.2 0 c0.24 0 0.39332 -0.04668 0.46 -0.14 s0.1 -0.24664 0.1 -0.45996 l0 -17.68 c0 -0.37332 -0.17332 -0.56 -0.52 -0.56 l-2.28 0 z M131.20000000000002 35.88 c0 0.56 -0.06668 1.0867 -0.2 1.58 s-0.36 0.92664 -0.68 1.3 s-0.74668 0.67332 -1.28 0.9 s-1.2 0.34 -2 0.34 l-6.72 0 c-0.8 0 -1.4667 -0.11332 -2 -0.34 s-0.96 -0.52668 -1.28 -0.9 s-0.54668 -0.80664 -0.68 -1.3 s-0.2 -1.02 -0.2 -1.58 l0 -21.12 c0 -1.1467 0.31332 -2.06 0.94 -2.74 s1.62 -1.02 2.98 -1.02 l7.2 0 c1.36 0 2.3533 0.34 2.98 1.02 s0.94 1.5933 0.94 2.74 l0 21.12 z M139.36000000000004 16.08 l0 11.4 l2.88 0 c0.24 0 0.39332 -0.04668 0.46 -0.14 s0.1 -0.24664 0.1 -0.45996 l0 -10.24 c0 -0.37332 -0.17332 -0.56 -0.52 -0.56 l-2.92 0 z M145.00000000000003 11 c1.1467 0 2.0067 0.31996 2.58 0.95996 s0.86 1.4933 0.86 2.56 l0 13.88 c0 0.56 -0.06 1.0733 -0.18 1.54 s-0.34 0.87336 -0.66 1.22 s-0.74668 0.62 -1.28 0.82 s-1.2 0.3 -2 0.3 l-4.96 0 l0 7.72 l-5.76 0 l0 -29 l11.4 0 z"></path></g>
			</g>
		</svg>
	